# xmcd CD database file generated by Grip 3.0.3
# 
# Track frame offsets:
#       200
#       23775
#       42710
#       74147
#       96545
#       114855
#       134965
# 
# Disc length: 2025 seconds
# 
# Revision: 2
# Processed by: cddbd v1.4PL0 Copyright (c) Steve Scherf et al.
# Submitted via: Grip 3.0.3
# 
DISCID=7007e707
DTITLE=Johnny Guitar Watson - Funk Beyond The Call Of Duty
DYEAR=1994
DGENRE=Funk
TTITLE0=Funk Beyond The Call Of Duty
TTITLE1=It's About The Dollar Bill
TTITLE2=Give Me My Love
TTITLE3=It's A Damn Shame
TTITLE4=I'm Gonna Get You Baby
TTITLE5=Barn Door
TTITLE6=Love That Will Not Die
EXTD=
EXTT0=
EXTT1=
EXTT2=
EXTT3=
EXTT4=
EXTT5=
EXTT6=
PLAYORDER=
